# xmcd CD database file
#
# Track frame offsets:
#	150
#	14818
#	30023
#	42259
#	55362
#	69052
#	87267
#	104587
#	117525
#	128851
#	141848
#	157235
#	175106
#	189072
#	203018
#	222213
#	233929
#	247187
#	269313
#
# Disc length: 4117 seconds
#
# Revision: 0
# Processed by: cddbd v1.5.2PL0 Copyright (c) Steve Scherf et al.
# Submitted via: CDex 1.51
#
DISCID=10101313
DTITLE=Louis Armstrong - Summertime - Satchmo's Finest Tracks [CD1]
DYEAR=2006
DGENRE=Jazz
TTITLE0=When It's Sleepy Time Down South
TTITLE1=Mack The Knife
TTITLE2=Jeepers Creepers
TTITLE3=Takes Two To Tango
TTITLE4=C'est Si Bon
TTITLE5=When You're Smiling (The Whole World Smiles WIth You)
TTITLE6=Lazy River
TTITLE7=Ain't Misbehavin'
TTITLE8=Gone Fishin' - w/ Bing Crosby
TTITLE9=Blueberry Hill
TTITLE10=La Vie En Rose
TTITLE11=Makin' Whoopee
TTITLE12=Dream a Little Dream of Me - w/ Ella Fitzgerald
TTITLE13=Chloe (Song of The Swamp)
TTITLE14=Stormy Weather
TTITLE15=Alexander's Ragtime Band
TTITLE16=Mahogany Hall Stomp
TTITLE17=Summertime - w/ Ella Fitzgerald
TTITLE18=Let's Do It (Let's Fall In Love)
EXTD=YEAR: 2006
EXTT0=
EXTT1=
EXTT2=
EXTT3=
EXTT4=
EXTT5=
EXTT6=
EXTT7=
EXTT8=
EXTT9=
EXTT10=
EXTT11=
EXTT12=
EXTT13=
EXTT14=
EXTT15=
EXTT16=
EXTT17=
EXTT18=
PLAYORDER=
